<?xml version="1.0" encoding="utf-8"?>
<!-- Generator: Adobe Illustrator 28.3.0, SVG Export Plug-In . SVG Version: 6.00 Build 0)  -->
<svg version="1.1" id="Layer_1" xmlns="http://www.w3.org/2000/svg" xmlns:xlink="http://www.w3.org/1999/xlink" x="0px" y="0px"
	 viewBox="0 0 271.54 120.19" style="enable-background:new 0 0 271.54 120.19;" xml:space="preserve">
<style type="text/css">
	.st0{fill:#00456E;}
	.st1{fill:#58595B;}
	.st2{opacity:0.4;}
	.st3{fill:#FBB040;}
</style>
<g>
	<path class="st0" d="M103.15,82.48c-1.18-0.61-2.54-0.91-4.09-0.91h-6.11v14.5h6.11c1.55,0,2.91-0.3,4.09-0.91s2.1-1.46,2.75-2.55
		c0.66-1.09,0.98-2.35,0.98-3.79c0-1.44-0.33-2.7-0.98-3.79C105.25,83.94,104.33,83.09,103.15,82.48z M104.09,91.66
		c-0.48,0.82-1.16,1.46-2.04,1.92s-1.92,0.68-3.12,0.68h-3.91V83.37h3.91c1.2,0,2.24,0.23,3.12,0.68s1.56,1.09,2.04,1.91
		c0.48,0.82,0.73,1.77,0.73,2.86C104.82,89.89,104.58,90.84,104.09,91.66z"/>
	<path class="st0" d="M109.83,93.35c-0.39,0-0.72,0.13-0.99,0.39c-0.28,0.26-0.41,0.6-0.41,1.01s0.14,0.76,0.41,1.03
		c0.28,0.27,0.61,0.4,0.99,0.4c0.37,0,0.69-0.13,0.96-0.4c0.27-0.27,0.4-0.61,0.4-1.03s-0.13-0.75-0.4-1.01
		C110.52,93.48,110.2,93.35,109.83,93.35z"/>
	<polygon class="st0" points="124.74,92.37 116.04,81.57 114.34,81.57 114.34,96.07 116.42,96.07 116.42,85.26 125.11,96.07 
		126.81,96.07 126.81,81.57 124.74,81.57 	"/>
	<path class="st0" d="M135.53,81.57l-6.57,14.5h2.13l1.59-3.62h7.71l1.59,3.62h2.18l-6.59-14.5H135.53z M133.42,90.78l3.13-7.11
		l3.13,7.11H133.42z"/>
	<path class="st0" d="M155.23,91.05c0.9-0.4,1.59-0.98,2.07-1.73c0.48-0.75,0.73-1.65,0.73-2.7c0-1.05-0.24-1.95-0.73-2.71
		c-0.48-0.76-1.17-1.34-2.07-1.74c-0.9-0.4-1.98-0.6-3.25-0.6h-5.65v14.5h2.07v-4.41h3.58c0.32,0,0.63-0.01,0.92-0.04l3.12,4.45
		h2.26l-3.45-4.86C154.96,91.15,155.1,91.11,155.23,91.05z M151.92,89.89h-3.52v-6.52h3.52c1.33,0,2.33,0.28,3.01,0.85
		s1.03,1.37,1.03,2.4c0,1.04-0.34,1.84-1.03,2.41S153.24,89.89,151.92,89.89z"/>
	<path class="st0" d="M165.75,81.57l-6.57,14.5h2.13l1.59-3.62h7.71l1.59,3.62h2.17l-6.59-14.5H165.75z M163.64,90.78l3.13-7.11
		l3.13,7.11H163.64z"/>
	<rect x="176.54" y="81.57" class="st0" width="2.07" height="14.5"/>
</g>
<g>
	<polygon class="st1" points="182.67,93.68 185.53,93.68 185.53,93.21 182.67,93.21 182.67,91.39 185.87,91.39 185.87,90.92 
		182.09,90.92 182.09,96.05 185.99,96.05 185.99,95.58 182.67,95.58 	"/>
	<polygon class="st1" points="195.39,95.08 191.84,90.92 191.36,90.92 191.36,96.05 191.94,96.05 191.94,91.89 195.49,96.05 
		195.97,96.05 195.97,90.92 195.39,90.92 	"/>
	<polygon class="st1" points="200.9,91.39 202.84,91.39 202.84,96.05 203.42,96.05 203.42,91.39 205.36,91.39 205.36,90.92 
		200.9,90.92 	"/>
	<polygon class="st1" points="210.87,93.68 213.72,93.68 213.72,93.21 210.87,93.21 210.87,91.39 214.07,91.39 214.07,90.92 
		210.29,90.92 210.29,96.05 214.19,96.05 214.19,95.58 210.87,95.58 	"/>
	<path class="st1" d="M222.83,94.22c0.34-0.14,0.59-0.34,0.78-0.6c0.18-0.26,0.27-0.57,0.27-0.94c0-0.37-0.09-0.69-0.27-0.95
		c-0.18-0.26-0.44-0.46-0.78-0.6c-0.34-0.14-0.74-0.21-1.2-0.21h-2.06v5.14h0.58v-1.63h1.48c0.16,0,0.29-0.02,0.44-0.03l1.27,1.66
		h0.64l-1.36-1.77C222.68,94.26,222.76,94.24,222.83,94.22z M221.61,93.96h-1.46v-2.58h1.46c0.55,0,0.97,0.11,1.26,0.34
		c0.29,0.22,0.43,0.54,0.43,0.95c0,0.41-0.14,0.72-0.43,0.95C222.58,93.85,222.16,93.96,221.61,93.96z"/>
	<path class="st1" d="M232.52,91.13c-0.34-0.14-0.74-0.21-1.2-0.21h-2.06v5.14h0.58v-1.62h1.48c0.47,0,0.87-0.07,1.2-0.21
		c0.34-0.14,0.59-0.34,0.78-0.61c0.18-0.26,0.27-0.57,0.27-0.94c0-0.37-0.09-0.69-0.27-0.95C233.12,91.47,232.86,91.27,232.52,91.13
		z M232.56,93.62c-0.29,0.22-0.71,0.33-1.26,0.33h-1.46v-2.57h1.46c0.55,0,0.97,0.11,1.26,0.34c0.29,0.22,0.43,0.54,0.43,0.95
		C232.99,93.09,232.84,93.4,232.56,93.62z"/>
	<rect x="238.83" y="90.92" class="st1" width="0.58" height="5.14"/>
	<path class="st1" d="M248.11,93.64c-0.2-0.1-0.42-0.18-0.66-0.25c-0.24-0.06-0.48-0.12-0.72-0.18s-0.46-0.12-0.67-0.18
		c-0.2-0.07-0.37-0.16-0.49-0.29c-0.12-0.12-0.18-0.28-0.18-0.48c0-0.18,0.05-0.33,0.15-0.47s0.26-0.25,0.48-0.33
		c0.22-0.08,0.49-0.12,0.82-0.12c0.25,0,0.5,0.03,0.77,0.1c0.27,0.07,0.52,0.18,0.75,0.32l0.2-0.43c-0.22-0.14-0.48-0.25-0.79-0.33
		c-0.3-0.08-0.61-0.12-0.92-0.12c-0.47,0-0.85,0.06-1.15,0.19c-0.3,0.13-0.52,0.3-0.67,0.51s-0.22,0.45-0.22,0.7
		c0,0.27,0.06,0.5,0.19,0.66c0.12,0.17,0.29,0.3,0.49,0.41c0.2,0.1,0.42,0.18,0.67,0.25c0.24,0.06,0.48,0.12,0.72,0.17
		c0.24,0.05,0.46,0.12,0.66,0.19c0.2,0.07,0.36,0.17,0.48,0.29c0.12,0.12,0.18,0.28,0.18,0.48c0,0.17-0.05,0.32-0.15,0.46
		c-0.1,0.14-0.26,0.25-0.48,0.33c-0.22,0.08-0.5,0.12-0.85,0.12c-0.36,0-0.71-0.06-1.04-0.18s-0.59-0.27-0.78-0.44l-0.23,0.42
		c0.21,0.2,0.5,0.36,0.87,0.48c0.38,0.12,0.77,0.19,1.18,0.19c0.47,0,0.86-0.06,1.16-0.19c0.3-0.13,0.53-0.3,0.67-0.51
		c0.15-0.21,0.22-0.44,0.22-0.69c0-0.27-0.06-0.49-0.19-0.65C248.48,93.88,248.31,93.74,248.11,93.64z"/>
	<polygon class="st1" points="254.64,95.58 254.64,93.68 257.49,93.68 257.49,93.21 254.64,93.21 254.64,91.39 257.84,91.39 
		257.84,90.92 254.05,90.92 254.05,96.05 257.95,96.05 257.95,95.58 	"/>
</g>
<g>
	<g class="st2">
		<path class="st0" d="M75.99,103.06c1.65-1.38,3.17-2.9,4.55-4.55c4.02-4.79,6.84-10.63,7.98-17.03c0.37-2.09,0.57-4.24,0.57-6.44
			H75.22c0,1.91-0.23,3.79-0.71,5.63l5.59,0.61c1,0.11,1.66,1.09,1.39,2.06c-0.96,3.33-2.47,6.43-4.44,9.19
			c-0.35,0.48-0.7,0.95-1.07,1.41c-1.35,1.67-2.88,3.2-4.55,4.55c-0.46,0.37-0.93,0.73-1.41,1.07c-2.57,1.84-5.43,3.28-8.5,4.24
			c-1.32,0.41-2.7-0.46-2.89-1.83l-0.94-6.64l-0.91-6.43l-1.19-8.49l-3.05-0.33v31.52C61.45,111.6,69.64,108.39,75.99,103.06z"/>
		<path class="st0" d="M65.17,82.12c-0.01,0.01-0.01,0.02-0.02,0.03c-0.09,0.18-0.19,0.34-0.31,0.51c0,0.01-0.01,0.02-0.01,0.02
			c-0.04,0.08-0.09,0.15-0.14,0.22c-0.07,0.11-0.14,0.22-0.22,0.33c0,0.01-0.01,0.01-0.01,0.01c-0.08,0.12-0.16,0.24-0.26,0.36
			c-0.11,0.16-0.23,0.32-0.36,0.47c-0.16,0.21-0.34,0.42-0.52,0.62c-0.18,0.2-0.36,0.4-0.56,0.59s-0.39,0.37-0.59,0.56
			c-0.2,0.18-0.41,0.36-0.62,0.52c-0.15,0.12-0.31,0.25-0.47,0.36c-0.12,0.09-0.23,0.18-0.36,0.26c-0.01,0-0.01,0.01-0.01,0.01
			c-0.16,0.11-0.32,0.22-0.49,0.32l4.63,4.63l5.3,5.3c0.05-0.04,0.09-0.08,0.14-0.12c1.58-1.28,3.02-2.72,4.3-4.3
			c0.04-0.05,0.08-0.09,0.11-0.15l-5.3-5.3c0.01-0.01,0.02-0.02,0.02-0.03c0.15-0.2,0.3-0.41,0.44-0.62
			c0.01-0.01,0.01-0.02,0.02-0.03c0.13-0.19,0.26-0.4,0.39-0.6l0.09-0.14c0.12-0.19,0.23-0.39,0.34-0.58
			c0.04-0.05,0.06-0.11,0.09-0.16c0.09-0.16,0.18-0.32,0.26-0.48c0.01-0.01,0.01-0.03,0.02-0.04c0.12-0.23,0.24-0.46,0.35-0.7
			l0.01-0.01c0.06-0.12,0.11-0.23,0.17-0.36c0.09-0.19,0.17-0.39,0.26-0.59c0-0.01,0-0.01,0.01-0.02c0.1-0.25,0.2-0.5,0.29-0.76
			c0.01-0.02,0.01-0.04,0.02-0.06c0.08-0.23,0.16-0.46,0.24-0.7c0.06-0.18,0.12-0.37,0.17-0.56c0.05-0.16,0.09-0.33,0.13-0.5h0.01
			c0.02-0.08,0.05-0.16,0.06-0.25c0.06-0.23,0.12-0.46,0.16-0.69c0.02-0.06,0.03-0.12,0.04-0.18c0.03-0.15,0.06-0.3,0.09-0.45
			c0.04-0.2,0.08-0.41,0.11-0.61c0.02-0.09,0.03-0.18,0.04-0.27c0.01-0.09,0.02-0.18,0.04-0.27c0.02-0.13,0.04-0.27,0.05-0.41
			c0.03-0.23,0.05-0.47,0.07-0.7c0.02-0.28,0.04-0.55,0.04-0.83c0.01-0.26,0.02-0.52,0.02-0.78H52.52v3.24l13.7,1.49
			c-0.2,0.59-0.44,1.16-0.72,1.71C65.4,81.69,65.29,81.9,65.17,82.12z"/>
		<path class="st0" d="M77.12,104.4c-0.76,0.64-1.55,1.25-2.35,1.82l12.14,3.2l-3.2-12.15c-0.57,0.81-1.18,1.6-1.82,2.36
			C80.45,101.35,78.84,102.96,77.12,104.4z"/>
	</g>
	<g class="st2">
		<path class="st0" d="M22.67,98.5c1.38,1.65,2.9,3.17,4.55,4.55c4.79,4.02,10.63,6.84,17.03,7.98c2.09,0.37,4.24,0.57,6.44,0.57
			V97.73c-1.91,0-3.79-0.23-5.63-0.71l-0.61,5.59c-0.11,1-1.09,1.66-2.06,1.39c-3.33-0.96-6.43-2.47-9.19-4.44
			c-0.48-0.35-0.95-0.7-1.41-1.07c-1.67-1.35-3.2-2.88-4.55-4.55c-0.37-0.46-0.73-0.93-1.07-1.41c-1.84-2.57-3.28-5.43-4.24-8.5
			c-0.41-1.32,0.46-2.7,1.83-2.89l6.64-0.94l6.43-0.91l8.49-1.19l0.33-3.05H14.12C14.12,83.96,17.34,92.15,22.67,98.5z"/>
		<path class="st0" d="M43.61,87.68c-0.01-0.01-0.02-0.01-0.03-0.02c-0.18-0.09-0.34-0.19-0.51-0.31c-0.01,0-0.02-0.01-0.02-0.01
			c-0.08-0.04-0.15-0.09-0.22-0.14c-0.11-0.07-0.22-0.14-0.33-0.22c-0.01,0-0.01-0.01-0.01-0.01c-0.12-0.08-0.24-0.16-0.36-0.26
			c-0.16-0.11-0.32-0.23-0.47-0.36c-0.21-0.16-0.42-0.34-0.62-0.52c-0.2-0.18-0.4-0.36-0.59-0.56s-0.37-0.39-0.56-0.59
			c-0.18-0.2-0.36-0.41-0.52-0.62c-0.12-0.15-0.25-0.31-0.36-0.47c-0.09-0.12-0.18-0.23-0.26-0.36c0-0.01-0.01-0.01-0.01-0.01
			c-0.11-0.16-0.22-0.32-0.32-0.49l-4.63,4.63l-5.3,5.3c0.04,0.05,0.08,0.09,0.12,0.14c1.28,1.58,2.72,3.02,4.3,4.3
			c0.05,0.04,0.09,0.08,0.15,0.11l5.3-5.3c0.01,0.01,0.02,0.02,0.03,0.02c0.2,0.15,0.41,0.3,0.62,0.44
			c0.01,0.01,0.02,0.01,0.03,0.02c0.19,0.13,0.4,0.26,0.6,0.39l0.14,0.09c0.19,0.12,0.39,0.23,0.58,0.34
			c0.05,0.04,0.11,0.06,0.16,0.09c0.16,0.09,0.32,0.18,0.48,0.26c0.01,0.01,0.03,0.01,0.04,0.02c0.23,0.12,0.46,0.24,0.7,0.35
			l0.01,0.01c0.12,0.06,0.23,0.11,0.36,0.17c0.19,0.09,0.39,0.17,0.59,0.26c0.01,0,0.01,0,0.02,0.01c0.25,0.1,0.5,0.2,0.76,0.29
			c0.02,0.01,0.04,0.01,0.06,0.02c0.23,0.08,0.46,0.16,0.7,0.24c0.18,0.06,0.37,0.12,0.56,0.17c0.16,0.05,0.33,0.09,0.5,0.13v0.01
			c0.08,0.02,0.16,0.05,0.25,0.06c0.23,0.06,0.46,0.12,0.69,0.16c0.06,0.02,0.12,0.03,0.18,0.04c0.15,0.03,0.3,0.06,0.45,0.09
			c0.2,0.04,0.41,0.08,0.61,0.11c0.09,0.02,0.18,0.03,0.27,0.04c0.09,0.01,0.18,0.02,0.27,0.04c0.13,0.02,0.27,0.04,0.41,0.05
			c0.23,0.03,0.47,0.05,0.7,0.07c0.28,0.02,0.55,0.04,0.83,0.04c0.26,0.01,0.52,0.02,0.78,0.02V75.03h-3.24l-1.49,13.7
			c-0.59-0.2-1.16-0.44-1.71-0.72C44.04,87.91,43.82,87.8,43.61,87.68z"/>
		<path class="st0" d="M21.32,99.63c-0.64-0.76-1.25-1.55-1.82-2.35l-3.2,12.14l12.15-3.2c-0.81-0.57-1.6-1.18-2.36-1.82
			C24.37,102.96,22.76,101.35,21.32,99.63z"/>
	</g>
	<g class="st2">
		<path class="st0" d="M27.22,45.18c-1.65,1.38-3.17,2.9-4.55,4.55c-4.02,4.79-6.84,10.63-7.98,17.03
			c-0.37,2.09-0.57,4.24-0.57,6.44H28c0-1.91,0.23-3.79,0.71-5.63l-5.59-0.61c-1-0.11-1.66-1.09-1.39-2.06
			c0.96-3.33,2.47-6.43,4.44-9.19c0.35-0.48,0.7-0.95,1.07-1.41c1.35-1.67,2.88-3.2,4.55-4.55c0.46-0.37,0.93-0.73,1.41-1.07
			c2.57-1.84,5.43-3.28,8.5-4.24c1.32-0.41,2.7,0.46,2.89,1.83l0.94,6.64l0.91,6.43l1.19,8.49l3.05,0.33V36.63
			C41.77,36.63,33.58,39.85,27.22,45.18z"/>
		<path class="st0" d="M38.04,66.12c0.01-0.01,0.01-0.02,0.02-0.03c0.09-0.18,0.19-0.34,0.31-0.51c0-0.01,0.01-0.02,0.01-0.02
			c0.04-0.08,0.09-0.15,0.14-0.22c0.07-0.11,0.14-0.22,0.22-0.33c0-0.01,0.01-0.01,0.01-0.01c0.08-0.12,0.16-0.24,0.26-0.36
			c0.11-0.16,0.23-0.32,0.36-0.47c0.16-0.21,0.34-0.42,0.52-0.62c0.18-0.2,0.36-0.4,0.56-0.59c0.19-0.19,0.39-0.37,0.59-0.56
			c0.2-0.18,0.41-0.36,0.62-0.52c0.15-0.12,0.31-0.25,0.47-0.36c0.12-0.09,0.23-0.18,0.36-0.26c0.01,0,0.01-0.01,0.01-0.01
			c0.16-0.11,0.32-0.22,0.49-0.32l-4.63-4.63l-5.3-5.3c-0.05,0.04-0.09,0.08-0.14,0.12c-1.58,1.28-3.02,2.72-4.3,4.3
			c-0.04,0.05-0.08,0.09-0.11,0.15l5.3,5.3c-0.01,0.01-0.02,0.02-0.02,0.03c-0.15,0.2-0.3,0.41-0.44,0.62
			c-0.01,0.01-0.01,0.02-0.02,0.03c-0.13,0.19-0.26,0.4-0.39,0.6l-0.09,0.14c-0.12,0.19-0.23,0.39-0.34,0.58
			c-0.04,0.05-0.06,0.11-0.09,0.16c-0.09,0.16-0.18,0.32-0.26,0.48c-0.01,0.01-0.01,0.03-0.02,0.04c-0.12,0.23-0.24,0.46-0.35,0.7
			l-0.01,0.01c-0.06,0.12-0.11,0.23-0.17,0.36c-0.09,0.19-0.17,0.39-0.26,0.59c0,0.01,0,0.01-0.01,0.02c-0.1,0.25-0.2,0.5-0.29,0.76
			c-0.01,0.02-0.01,0.04-0.02,0.06c-0.08,0.23-0.16,0.46-0.24,0.7c-0.06,0.18-0.12,0.37-0.17,0.56c-0.05,0.16-0.09,0.33-0.13,0.5
			h-0.01c-0.02,0.08-0.05,0.16-0.06,0.25c-0.06,0.23-0.12,0.46-0.16,0.69c-0.02,0.06-0.03,0.12-0.04,0.18
			c-0.03,0.15-0.06,0.3-0.09,0.45c-0.04,0.2-0.08,0.41-0.11,0.61c-0.02,0.09-0.03,0.18-0.04,0.27c-0.01,0.09-0.02,0.18-0.04,0.27
			c-0.02,0.13-0.04,0.27-0.05,0.41c-0.03,0.23-0.05,0.47-0.07,0.7c-0.02,0.28-0.04,0.55-0.04,0.83c-0.01,0.26-0.02,0.52-0.02,0.78
			h20.94v-3.24l-13.7-1.49c0.2-0.59,0.44-1.16,0.72-1.71C37.81,66.55,37.93,66.33,38.04,66.12z"/>
		<path class="st0" d="M26.09,43.84c0.76-0.64,1.55-1.25,2.35-1.82l-12.14-3.2l3.2,12.15c0.57-0.81,1.18-1.6,1.82-2.36
			C22.76,46.89,24.37,45.28,26.09,43.84z"/>
	</g>
	<g>
		<path class="st0" d="M101.01,32.49c-2.36-2.82-4.96-5.42-7.78-7.78c-8.18-6.86-18.14-11.67-29.07-13.62
			c-3.57-0.64-7.25-0.97-10.99-0.97v23.69c3.26,0,6.48,0.4,9.61,1.21l1.04-9.55c0.19-1.71,1.87-2.84,3.52-2.37
			c5.69,1.63,10.98,4.22,15.69,7.58c0.82,0.59,1.63,1.2,2.41,1.83c2.86,2.31,5.47,4.92,7.78,7.78c0.63,0.78,1.24,1.59,1.83,2.41
			c3.14,4.38,5.6,9.27,7.24,14.52c0.71,2.26-0.78,4.61-3.12,4.94l-11.33,1.6l-10.98,1.55l-14.49,2.04l-0.56,5.21h53.82
			C115.6,57.32,110.11,43.34,101.01,32.49z"/>
		<path class="st3" d="M65.26,50.96c0.02,0.01,0.04,0.02,0.05,0.03c0.3,0.16,0.58,0.33,0.87,0.53c0.01,0,0.03,0.01,0.04,0.02
			c0.13,0.07,0.25,0.15,0.38,0.24c0.19,0.12,0.38,0.24,0.57,0.38c0.01,0,0.01,0.01,0.02,0.01c0.21,0.14,0.41,0.28,0.61,0.44
			c0.27,0.19,0.54,0.4,0.8,0.61c0.36,0.28,0.72,0.58,1.06,0.89c0.35,0.31,0.68,0.62,1.01,0.95c0.33,0.33,0.64,0.66,0.95,1.01
			c0.31,0.34,0.61,0.7,0.89,1.06c0.21,0.26,0.42,0.53,0.61,0.8c0.16,0.2,0.3,0.4,0.44,0.61c0,0.01,0.01,0.01,0.01,0.02
			c0.19,0.27,0.37,0.55,0.55,0.83l7.91-7.91l9.05-9.05c-0.07-0.08-0.14-0.16-0.2-0.24c-2.18-2.7-4.64-5.16-7.34-7.34
			c-0.08-0.07-0.16-0.13-0.25-0.19l-9.04,9.04c-0.02-0.02-0.03-0.03-0.05-0.03c-0.35-0.26-0.7-0.51-1.06-0.75
			c-0.01-0.01-0.03-0.02-0.05-0.03c-0.33-0.23-0.68-0.45-1.02-0.67l-0.24-0.15c-0.33-0.2-0.66-0.4-0.99-0.58
			c-0.09-0.06-0.19-0.11-0.28-0.16c-0.27-0.16-0.55-0.31-0.82-0.45c-0.02-0.01-0.05-0.02-0.07-0.03c-0.39-0.21-0.79-0.41-1.19-0.59
			l-0.01-0.01c-0.2-0.1-0.4-0.19-0.61-0.29c-0.33-0.15-0.66-0.29-1-0.44c-0.01,0-0.02,0-0.03-0.01c-0.42-0.17-0.85-0.34-1.29-0.5
			c-0.03-0.01-0.06-0.02-0.1-0.04c-0.39-0.14-0.79-0.28-1.19-0.41c-0.31-0.1-0.63-0.2-0.95-0.29c-0.28-0.08-0.57-0.16-0.85-0.23
			v-0.01c-0.14-0.04-0.28-0.08-0.42-0.11c-0.39-0.11-0.78-0.2-1.18-0.28c-0.1-0.03-0.2-0.05-0.3-0.07c-0.25-0.05-0.51-0.1-0.77-0.15
			c-0.35-0.07-0.7-0.13-1.05-0.18c-0.15-0.03-0.3-0.05-0.46-0.07c-0.15-0.02-0.31-0.04-0.46-0.06c-0.23-0.04-0.46-0.07-0.7-0.09
			c-0.39-0.05-0.8-0.09-1.2-0.12c-0.47-0.03-0.94-0.06-1.42-0.07c-0.44-0.02-0.88-0.03-1.33-0.03v35.75h5.53l2.55-23.4
			c1.01,0.34,1.98,0.75,2.92,1.23C64.53,50.57,64.9,50.76,65.26,50.96z"/>
		<path class="st3" d="M103.31,30.56c1.09,1.3,2.13,2.64,3.11,4.02l5.46-20.73l-20.74,5.46c1.38,0.98,2.73,2.02,4.03,3.11
			C98.1,24.88,100.85,27.63,103.31,30.56z"/>
	</g>
</g>
</svg>
