<?xml version="1.0" encoding="utf-8"?>
<!-- Generator: Adobe Illustrator 28.3.0, SVG Export Plug-In . SVG Version: 6.00 Build 0)  -->
<svg version="1.1" id="Layer_1" xmlns="http://www.w3.org/2000/svg" xmlns:xlink="http://www.w3.org/1999/xlink" x="0px" y="0px"
	 viewBox="0 0 300 300" style="enable-background:new 0 0 300 300;" xml:space="preserve">
<style type="text/css">
	.st0{fill:#A7A9AC;}
	.st1{fill:#58595B;}
	.st2{fill:#00456E;}
	.st3{fill:#FBB040;}
</style>
<g>
	<g>
		<path class="st0" d="M68.96,216.26c-2.93-1.51-6.32-2.26-10.16-2.26H43.63V250H58.8c3.84,0,7.23-0.75,10.16-2.26
			c2.93-1.51,5.21-3.62,6.84-6.33c1.63-2.71,2.44-5.85,2.44-9.41s-0.81-6.7-2.44-9.41C74.17,219.88,71.89,217.77,68.96,216.26z
			 M71.3,239.07c-1.2,2.04-2.89,3.63-5.07,4.76c-2.18,1.13-4.76,1.7-7.74,1.7h-9.72v-27.06h9.72c2.98,0,5.56,0.57,7.74,1.7
			c2.18,1.13,3.87,2.71,5.07,4.73c1.2,2.02,1.8,4.39,1.8,7.1C73.1,234.67,72.5,237.03,71.3,239.07z"/>
		<path class="st0" d="M85.55,243.26c-0.96,0-1.78,0.33-2.47,0.98c-0.69,0.65-1.03,1.49-1.03,2.52c0,1.03,0.34,1.88,1.03,2.55
			c0.69,0.67,1.51,1,2.47,1c0.93,0,1.72-0.33,2.39-1c0.67-0.67,1-1.52,1-2.55c0-1.03-0.33-1.87-1-2.52
			C87.27,243.59,86.48,243.26,85.55,243.26z"/>
		<polygon class="st0" points="122.58,240.82 100.98,213.99 96.76,213.99 96.76,250 101.91,250 101.91,223.17 123.51,250 
			127.73,250 127.73,213.99 122.58,213.99 		"/>
		<path class="st0" d="M149.38,213.99L133.08,250h5.3l3.96-9h19.15l3.96,9h5.4l-16.36-36.01H149.38z M144.14,236.88l7.76-17.67
			l7.76,17.67H144.14z"/>
		<path class="st0" d="M198.3,237.55c2.23-0.99,3.94-2.43,5.14-4.3c1.2-1.87,1.8-4.11,1.8-6.71c0-2.61-0.6-4.85-1.8-6.74
			c-1.2-1.89-2.92-3.33-5.14-4.32c-2.23-0.99-4.92-1.49-8.08-1.49h-14.04V250h5.14v-10.96h8.9c0.79,0,1.55-0.03,2.29-0.09
			l7.74,11.05h5.61l-8.56-12.08C197.64,237.8,197.98,237.69,198.3,237.55z M190.07,234.67h-8.74v-16.2h8.74
			c3.29,0,5.79,0.7,7.48,2.11c1.7,1.41,2.55,3.39,2.55,5.97c0,2.57-0.85,4.57-2.55,5.99C195.86,233.96,193.36,234.67,190.07,234.67z
			"/>
		<path class="st0" d="M224.43,213.99L208.12,250h5.3l3.96-9h19.15l3.96,9h5.4l-16.36-36.01H224.43z M219.18,236.88l7.76-17.67
			l7.76,17.67H219.18z"/>
		<rect x="251.23" y="213.99" class="st0" width="5.14" height="36.01"/>
	</g>
	<g>
		<polygon class="st1" points="66.75,268.76 72.48,268.76 72.48,267.77 66.75,267.77 66.75,263.83 73.17,263.83 73.17,262.82 
			65.58,262.82 65.58,273.89 73.41,273.89 73.41,272.88 66.75,272.88 		"/>
		<polygon class="st1" points="92.29,271.79 85.16,262.82 84.2,262.82 84.2,273.89 85.37,273.89 85.37,264.91 92.48,273.89 
			93.45,273.89 93.45,262.82 92.29,262.82 		"/>
		<polygon class="st1" points="103.35,263.83 107.24,263.83 107.24,273.89 108.41,273.89 108.41,263.83 112.3,263.83 112.3,262.82 
			103.35,262.82 		"/>
		<polygon class="st1" points="123.37,268.76 129.09,268.76 129.09,267.77 123.37,267.77 123.37,263.83 129.79,263.83 
			129.79,262.82 122.2,262.82 122.2,273.89 130.03,273.89 130.03,272.88 123.37,272.88 		"/>
		<path class="st1" d="M147.37,269.92c0.67-0.3,1.19-0.73,1.56-1.3c0.36-0.56,0.55-1.24,0.55-2.02c0-0.8-0.18-1.48-0.55-2.05
			c-0.36-0.56-0.88-1-1.56-1.3c-0.67-0.3-1.48-0.45-2.42-0.45h-4.14v11.07h1.17v-3.51h2.97c0.31,0,0.59-0.04,0.87-0.08l2.54,3.59
			h1.28l-2.73-3.83C147.07,270.01,147.24,269.99,147.37,269.92z M144.92,269.38h-2.94v-5.55h2.94c1.11,0,1.95,0.24,2.52,0.73
			c0.57,0.49,0.86,1.17,0.86,2.06c0,0.88-0.29,1.55-0.86,2.04C146.87,269.14,146.03,269.38,144.92,269.38z"/>
		<path class="st1" d="M166.84,263.27c-0.67-0.3-1.48-0.45-2.42-0.45h-4.14v11.07h1.17v-3.5h2.97c0.94,0,1.75-0.15,2.42-0.46
			c0.67-0.31,1.19-0.74,1.56-1.3c0.36-0.56,0.55-1.24,0.55-2.02c0-0.8-0.18-1.48-0.55-2.05C168.04,264,167.52,263.57,166.84,263.27z
			 M166.91,268.64c-0.58,0.48-1.42,0.72-2.52,0.72h-2.94v-5.53h2.94c1.11,0,1.95,0.24,2.52,0.73c0.57,0.49,0.86,1.17,0.86,2.06
			C167.78,267.49,167.49,268.17,166.91,268.64z"/>
		<path class="st1" d="M186.07,269.92c0.67-0.3,1.19-0.73,1.56-1.3c0.36-0.56,0.55-1.24,0.55-2.02c0-0.8-0.18-1.48-0.55-2.05
			c-0.36-0.56-0.88-1-1.56-1.3c-0.67-0.3-1.48-0.45-2.42-0.45h-4.14v11.07h1.17v-3.51h2.97c0.31,0,0.59-0.04,0.87-0.08l2.54,3.59
			h1.28l-2.73-3.83C185.77,270.01,185.94,269.99,186.07,269.92z M183.62,269.38h-2.94v-5.55h2.94c1.11,0,1.95,0.24,2.52,0.73
			c0.57,0.49,0.86,1.17,0.86,2.06c0,0.88-0.29,1.55-0.86,2.04C185.57,269.14,184.73,269.38,183.62,269.38z"/>
		<rect x="198.98" y="262.82" class="st1" width="1.17" height="11.07"/>
		<path class="st1" d="M217.61,268.69c-0.41-0.22-0.85-0.39-1.33-0.53s-0.96-0.26-1.45-0.38c-0.49-0.12-0.93-0.25-1.34-0.4
			c-0.41-0.15-0.73-0.35-0.98-0.62s-0.37-0.61-0.37-1.04c0-0.38,0.1-0.72,0.31-1.02c0.21-0.3,0.52-0.54,0.96-0.72
			c0.43-0.18,0.98-0.27,1.64-0.27c0.5,0,1.01,0.07,1.54,0.22s1.04,0.38,1.51,0.7l0.4-0.93c-0.44-0.31-0.97-0.55-1.58-0.72
			s-1.23-0.26-1.85-0.26c-0.94,0-1.71,0.14-2.31,0.42c-0.6,0.28-1.05,0.65-1.34,1.11c-0.29,0.46-0.44,0.96-0.44,1.51
			c0,0.59,0.12,1.07,0.37,1.43c0.25,0.36,0.57,0.66,0.98,0.88c0.41,0.22,0.85,0.4,1.34,0.53c0.49,0.13,0.97,0.26,1.46,0.37
			c0.49,0.12,0.93,0.25,1.33,0.4c0.4,0.15,0.72,0.36,0.97,0.62c0.25,0.26,0.37,0.61,0.37,1.04c0,0.36-0.1,0.69-0.31,0.98
			c-0.21,0.29-0.53,0.53-0.96,0.7s-1,0.26-1.7,0.26c-0.73,0-1.42-0.13-2.08-0.39c-0.66-0.26-1.18-0.58-1.57-0.96l-0.46,0.9
			c0.41,0.42,0.99,0.77,1.75,1.04c0.75,0.27,1.54,0.4,2.36,0.4c0.95,0,1.73-0.14,2.33-0.42s1.06-0.65,1.35-1.11
			c0.29-0.46,0.44-0.96,0.44-1.49c0-0.58-0.12-1.05-0.37-1.41C218.35,269.2,218.02,268.91,217.61,268.69z"/>
		<polygon class="st1" points="230.72,272.88 230.72,268.76 236.44,268.76 236.44,267.77 230.72,267.77 230.72,263.83 
			237.14,263.83 237.14,262.82 229.55,262.82 229.55,273.89 237.37,273.89 237.37,272.88 		"/>
	</g>
	<path class="st2" d="M235.48,193.98H87.24l1.55-14.35l39.9-5.61l30.25-4.27l31.21-4.4c6.45-0.91,10.54-7.39,8.59-13.61
		c-4.52-14.46-11.29-27.92-19.93-39.99c-1.62-2.26-3.3-4.49-5.04-6.63c-6.36-7.87-13.54-15.06-21.42-21.42
		c-2.15-1.73-4.38-3.41-6.63-5.04c-12.96-9.28-27.52-16.4-43.2-20.89c-4.55-1.3-9.18,1.81-9.69,6.52L90,90.59
		c-8.64-2.23-17.51-3.33-26.48-3.33V22.02c10.32,0,20.45,0.91,30.28,2.67c30.11,5.37,57.56,18.64,80.08,37.52
		c7.76,6.5,14.92,13.65,21.42,21.42C220.36,113.49,235.48,152,235.48,193.98z"/>
	<path class="st3" d="M167.92,110.98l-24.94,24.94l-21.77,21.77c-0.5-0.77-0.99-1.54-1.51-2.28c0-0.03-0.03-0.03-0.03-0.06
		c-0.39-0.58-0.77-1.13-1.21-1.68c-0.52-0.74-1.1-1.49-1.68-2.2c-0.77-0.99-1.6-1.98-2.45-2.92c-0.85-0.96-1.71-1.87-2.62-2.78
		s-1.82-1.76-2.78-2.62c-0.94-0.85-1.93-1.68-2.92-2.45c-0.72-0.58-1.46-1.16-2.2-1.68c-0.55-0.44-1.1-0.83-1.68-1.21
		c-0.03,0-0.03-0.03-0.06-0.03c-0.52-0.39-1.05-0.72-1.57-1.05c-0.36-0.25-0.69-0.47-1.05-0.66c-0.03-0.03-0.08-0.05-0.11-0.05
		c-0.8-0.55-1.57-1.02-2.39-1.46c-0.03-0.03-0.08-0.06-0.14-0.08c-0.99-0.55-2.01-1.07-3.03-1.57c-2.59-1.32-5.26-2.45-8.04-3.39
		l-7.02,64.44H63.51V95.51c1.24,0,2.45,0.03,3.66,0.08c1.32,0.03,2.62,0.11,3.91,0.19c1.1,0.08,2.23,0.19,3.3,0.33
		c0.66,0.05,1.29,0.14,1.93,0.25c0.41,0.06,0.85,0.11,1.27,0.17c0.44,0.06,0.85,0.11,1.27,0.19c0.96,0.14,1.93,0.3,2.89,0.5
		c0.72,0.14,1.43,0.28,2.12,0.41c0.28,0.06,0.55,0.11,0.83,0.19c1.1,0.22,2.17,0.47,3.25,0.77c0.39,0.08,0.77,0.19,1.16,0.3v0.03
		c0.77,0.19,1.57,0.41,2.34,0.63c0.88,0.25,1.76,0.52,2.62,0.8c1.1,0.36,2.2,0.74,3.28,1.13c0.11,0.06,0.19,0.08,0.28,0.11
		c1.21,0.44,2.39,0.91,3.55,1.38c0.03,0.03,0.06,0.03,0.08,0.03c0.94,0.41,1.84,0.8,2.75,1.21c0.58,0.28,1.13,0.52,1.68,0.8
		l0.03,0.03c1.1,0.5,2.2,1.05,3.28,1.62c0.06,0.03,0.14,0.06,0.19,0.08c0.74,0.39,1.51,0.8,2.26,1.24c0.25,0.14,0.52,0.28,0.77,0.44
		c0.91,0.5,1.82,1.05,2.73,1.6l0.66,0.41c0.94,0.61,1.9,1.21,2.81,1.84c0.06,0.03,0.11,0.05,0.14,0.08
		c0.99,0.66,1.95,1.35,2.92,2.06c0.06,0,0.08,0.03,0.14,0.08l24.91-24.91c0.25,0.17,0.47,0.33,0.69,0.52
		c7.43,6,14.2,12.77,20.2,20.2C167.54,110.54,167.73,110.76,167.92,110.98z"/>
	<path class="st3" d="M225.21,32.28l-15.03,57.09c-2.7-3.8-5.56-7.49-8.56-11.07c-6.77-8.09-14.34-15.66-22.43-22.43
		c-3.58-3-7.29-5.86-11.09-8.56L225.21,32.28z"/>
</g>
</svg>
